<?xml version="1.0" encoding="UTF-8"?>
<svg id="Capa_2" xmlns="http://www.w3.org/2000/svg" viewBox="0 0 864.46 1047.58" fill="none" stroke="none">
    <g id="Capa_1-2">
        <path class="cls-1" fill="#FFFFFF"
              d="m742.41,1047.58H122.01c.49-1.98.78-4.04,1.5-5.94,21.16-55.51,42.32-111.02,63.66-166.46,1.6-4.16.79-6.12-2.77-8.54-29.87-20.36-56.87-44.08-80.2-71.68C16.78,691.51-16.21,572.64,7.41,439.32c16.49-93.12,61.8-171.27,131.34-235.22,13.12-12.07,27.35-22.94,40.46-33.85C153.17,113.77,127.06,57.12,100.72,0h656.72c-.87,2.17-1.5,3.89-2.24,5.57-23.28,52.61-46.51,105.25-69.97,157.78-2.09,4.67-1.52,6.92,2.73,9.96,27.52,19.69,52.31,42.45,74.23,68.25,55.09,64.8,88.48,139.24,99.03,223.78,1.13,9.06,2.16,18.13,3.23,27.2v48.61c-.32,1.24-.78,2.45-.93,3.71-1.56,13.45-2.42,27.02-4.69,40.34-19.32,113.3-75.85,203.94-167.13,273.23-6.57,4.99-13.42,9.59-20.27,14.46,14.59,35.73,29.13,71.21,43.57,106.73,9.2,22.63,18.28,45.31,27.41,67.96Zm72.36-531.39c-.41-8.61-.65-18.59-1.43-28.53-.68-8.62-1.71-17.24-3.04-25.79-14.83-95.53-60.32-173.72-134.67-234.91-62.41-51.36-134.5-79.16-215.1-85.1-33.4-2.46-66.59-.98-99.46,5.22-86.39,16.31-159.45,57.04-217.25,123.23-76.68,87.8-106.61,190.41-89.05,305.54,14.66,96.11,62.38,174.09,138,234.74,59.24,47.51,127.14,74.06,202.76,81.28,39.47,3.77,78.52,1.6,117.2-6.55,77.56-16.34,143.81-53.35,198.26-110.93,68.06-71.97,102.23-157.83,103.77-258.2Zm-157.56,366.64c-152.18,82.68-303.02,81.95-454.02-2.5-18.84,49.37-37.89,99.31-57.09,149.64h571.13c-20.2-49.53-40.13-98.38-60.01-147.14ZM731.75,16.79H127.12c22.32,48.43,44.36,96.26,66.03,143.28,158.86-92.81,316.95-93.44,475.82-1.42,20.72-46.82,41.62-94.04,62.78-141.86Z"/>
        <path class="cls-1" fill="#FFFFFF"
              d="m796.23,512.05c-2.03,103.97-35.35,187.74-103.49,256.76-54.63,55.34-120.63,90.06-197.41,102.28-117.78,18.75-221.53-12.67-309.12-93.33-63.67-58.64-100.7-132.21-110-218.48-11.6-107.52,19.84-201.75,92.9-281.29,55.98-60.95,125.65-98.15,207.41-110.95,107.43-16.81,204.24,9.18,288.54,77.78,68.93,56.1,110.86,128.9,125.84,216.68,3.25,19.04,4.1,38.49,5.32,50.56Zm-458.7,106.1c-31.6,31.59-63.07,63.06-94.57,94.56,39.2,44.81,102.86,52.23,145.27,29.22-4.97-8.62-2-15.59,5.08-21.51.43-.36.71-.89,1.11-1.27,6.68-6.32,7.93-13.51,2.74-21.19-4.93-7.3-4.86-13.57,2.47-19.11.2-.15.12-.66.23-1.46-20.93-19.88-42.05-39.95-62.34-59.23Zm196.61-198.51c32.25,31.03,64.33,61.9,96.44,92.79,45.47-52.12,42.04-137.95-4.01-184.55-30.69,30.47-61.39,60.94-92.43,91.76Zm-3.24,201.17c-19.98,20.46-40.16,41.01-60.13,61.75-1.76,1.83-2.78,4.86-3.12,7.47-1.51,11.72-2.38,23.52-4.04,35.2-.6,4.19,1.07,6.1,4.12,8.1,28.28,18.58,59.1,25.47,92.36,19.05,25.91-5,48.11-17.35,66.34-36.41-31.55-31.42-62.86-62.62-95.53-95.17Zm8.85-3.9c29.87,30.67,60.54,62.17,91.27,93.73,50.04-55.76,43.18-142.28-.96-187.19-30.19,31.25-60.38,62.49-90.31,93.46Zm247.11-101.45c-35.1-81.77-69.83-162.65-104.35-243.08-16.84,16.85-33.38,33.39-50.15,50.15,25.22,25.26,45.5,54.61,59.97,87.96,14.52,33.44,21.76,68.51,23.07,104.97h71.46ZM241.34,319.03c53.34-49.54,116.45-76.1,189.56-78.01v-69.82c-80.68,32.15-160.94,64.14-241.22,96.13,17.39,17.41,34.27,34.3,51.66,51.71Zm-6.35,6.43c-16.66-16.73-33.02-33.16-49.53-49.72-34.08,79.41-68.36,159.25-102.77,239.43h72.33c.88-36.04,8.21-70.22,22.07-102.94,13.94-32.89,33.63-62.01,57.89-86.77Zm-5.45,386.93c-48.53-53.37-73.53-116.56-74.74-189.03h-72.24c32.98,79.7,65.69,158.74,98.27,237.49,16.36-16.27,32.44-32.27,48.71-48.46Zm10.18-187.13c-48.65,56.47-39.84,138.58-3.18,179.15,31.03-31.05,62.1-62.16,93.35-93.43-29.58-28.12-59.71-56.76-90.17-85.72Zm.44-14.22c31.17-29.82,62.05-59.37,93.17-89.14-30.44-30.83-60.26-61.04-90.14-91.31-41.8,47.05-46.85,126.1-3.04,180.45Zm546.72,12.15h-71.32c-1.34,74.28-27.46,138.33-77.26,191.73,15.94,15.94,31.59,31.59,47.5,47.5,33.49-79.26,67.14-158.92,101.08-239.23Zm-448.14-106.93c.33-.16.72-.25.97-.49,14.84-14.16,29.71-28.29,44.41-42.6,1.28-1.25,1.77-3.59,2.07-5.52,1.84-11.82,2.96-23.78,5.42-35.47,2.14-10.16,5.72-20.02,8.67-30.04-51.77-31.77-119.35-16.51-151.68,22.88,30.1,30.46,60.12,60.84,90.14,91.23Zm112.23-195.77c2.4,4.62,4.89,8.43,6.43,12.59,2.71,7.33,7.63,9.99,15.36,10.91,43.64,5.23,83.48,20.93,119.63,45.78,11.86,8.15,23,17.36,33.73,25.52,16.41-16.45,32.83-32.91,49.48-49.6-78.57-31.3-157.56-62.76-236.89-94.36v66.96c4.44-6.44,8.13-11.8,12.26-17.8Zm-12.71,646.91c81.22-33.08,161.21-65.66,240.14-97.81-15.86-15.94-31.47-31.61-47.24-47.46-1.28,1.16-3.1,2.78-4.88,4.44-29.14,27.11-62.46,47.23-100.07,60.31-25.52,8.88-51.83,13.32-78.67,15.3-1.86.14-4.63,1.95-5.16,3.58-1.81,5.6-3.72,11.43-3.94,17.24-.55,14.41-.18,28.86-.18,44.4Zm42.43-569.78c7.04,27.04,11.98,54.1,13.68,81.71.07,1.18.58,2.64,1.4,3.43,10.77,10.47,21.63,20.84,33.37,32.09,30.98-30.98,61.65-61.66,92.3-92.32-38.43-40.1-98.75-46.75-140.75-24.92Zm-13.72,245.77c.24-1.71.38-2.63.51-3.56,4.37-31.83,8.05-63.78,13.29-95.47,5.66-34.27,5.39-68.28-2.28-102.01-7.41-32.58-16.1-64.87-24.34-97.26-.32-1.27-1.9-2.23-2.89-3.33-1.02,1.34-2.7,2.56-2.96,4.03-5.07,29.28-11.38,58.5-11.25,88.36.28,63.28,1.14,126.55,2.19,189.82.07,4.09,2.95,9.01,6.03,11.98,5.71,5.5,13.49,6.83,21.71,7.42Zm-279.12,222.91c81.01,33.64,161.69,67.15,242.84,100.85v-35.55c-6.89,9.2-15.73,11.73-25.08,8.53-22.35-7.64-39.27-21.87-48.2-44.26-1.56-3.91-3.57-5.95-7.52-7.18-30.61-9.51-58.67-24.07-83.98-43.7-10.66-8.27-20.69-17.35-30.99-26.05-15.37,15.46-30.88,31.08-47.07,47.37Zm46-250.9c-34.45-47.98-40.02-98.71-19.47-153.4-27.28,27.68-59.16,123.61-51.42,153.4h70.89Zm-25.72,156.48c-8.79-25.09-11.31-50.77-7.56-77.03,3.79-26.51,14.43-50.16,31.14-71.58h-69.88c.57,54.43,16.04,103.74,46.3,148.61Zm500.07-156.63c-1.44-53.74-17.18-102.32-47.3-146.36,8.42,24.61,11.16,49.72,7.51,75.5-3.68,25.97-13.82,49.25-29.93,70.87h69.72Zm-41.69,150.27c27.35-43.42,41.18-90.69,41.79-142.18h-67.27c32.6,43.48,40,90.84,25.48,142.18Zm-269.26-150.35c0-5.14-.2-9.47.06-13.77.21-3.42-.89-5.3-4.06-6.99-15.46-8.22-31.95-13.15-49.28-14.17-34.84-2.06-65.55,8.63-91.7,31.96-.86.76-1.52,1.74-2.58,2.97h147.55Zm223.72,8.18h-136.97c0,3.79.03,7.15,0,10.51-.04,3.39.08,6.8-.32,10.15-.48,4.03,1,6.01,4.85,7.46,32.19,12.16,64.01,11.35,95.41-2.56,13.61-6.03,25.83-14.27,37.05-25.56Zm-369.58-.08c22.84,24.85,66.83,40.81,96.8,35.42.42-7.44.84-14.95,1.26-22.45,3.96,5.54,6.94,11.13,9.35,16.96,1.54,3.71,3.88,4.78,7.37,3.61,10.26-3.43,20.48-6.99,31.36-10.73-3.2-2.6-4.95-13.39-3.62-15.76,1.13-2,1.95-4.17,3.26-7.06h-145.79Zm370.99-8.02c-1.15-1.42-1.53-2.05-2.05-2.53-36.4-33.73-87.51-41.11-130.43-23.38-1.35.56-3.08,2.1-3.22,3.34-.85,7.38-1.28,14.81-1.88,22.57h137.58Zm72.4-232.04c31.04,72.32,61.66,143.64,92.73,216.01,5.62-56.44-48.35-182.16-92.73-216.01Zm-520.43.62c-28.06,28.8-49.39,61.96-65.62,98.59-18.2,41.07-28.8,99.03-26.16,115.23,30.76-71.64,61.27-142.73,91.79-213.82Zm25.88,495.36c38.88,45.1,154.71,92.91,212.4,88.42-71.25-29.66-141.83-59.04-212.4-88.42Zm498.75-28.87c53.51-59.59,83.55-129.14,87.97-209.45-29.32,69.82-58.65,139.64-87.97,209.45Zm-239.75,116.44c.13.51.26,1.02.39,1.53,77.83-5.77,146.51-33.89,205.61-85.44-68.66,27.97-137.33,55.94-205.99,83.91Zm-292.53-120.93c-27.99-67.94-55.97-135.88-83.96-203.81-.48.2-.95.39-1.43.59,5.66,77.23,34.18,145.02,85.38,203.22Zm295.49-7.31c-1.86,9.95-3.07,19.28-5.43,28.31-2.39,9.17-5.9,18.06-8.93,27.09,27.23,3.11,105.82-19.94,122.14-36.17-18.9,4.62-37.38,5.25-55.87,2.15-18.7-3.14-35.81-10.53-51.92-21.39ZM206.91,253.02c67.94-27.23,135.88-54.45,203.81-81.68-77.04,4.32-144.92,31.61-203.81,81.68Zm455.53-.05c-58.55-50-126.57-76.92-203.45-81.59,67.82,27.2,135.64,54.39,203.45,81.59Zm-193.18,420.41c19.49-20.33,37.86-39.5,55.68-58.09-10.15-10.28-21.56-21.84-33.14-33.56-9.1,5.64-15.93,12.69-16.51,24.71-.69,14.25-2.4,28.44-3.7,42.66-.69,7.56-1.45,15.12-2.33,24.28Zm19.11-191.48c34.15-13.14,67.27-12.22,100.37.55-19.96-19.12-39.91-38.24-60.42-57.9-9.91,10.07-19.21,20.79-29.86,29.96-8.57,7.38-8.94,16.57-10.09,27.39Zm-182.88-199.95c34.48-8.42,67.31-3.96,97.83,12.75,9.35-15.68,18.38-30.81,27.51-46.12-34.41-1.87-97.48,14.78-125.35,33.37Zm-27.84,203.05c40.21-17.58,79.87-17.09,119.15,2.68-19.96-19.84-39.61-39.37-59.64-59.29-19.28,18.34-39.4,37.47-59.52,56.6Zm126.97,186.67c.87-.15,1.75-.3,2.62-.46,0-2.65.26-5.32-.05-7.94-.97-8.31-6-15.44-5.75-24.36.36-13.21-.9-26.46-1.48-40.09-12.26-1.88-21.71,5.48-31.61,12.54-3.99-5.01-7.72-9.69-11.36-14.26-4.84,4.8-9.88,9.8-15.15,15.03,20.89,19.81,41.84,39.67,62.79,59.54Zm-18.9-289.37c-14.16,13.41-27.88,26.4-40.51,38.36,17.13,17.29,34.07,34.4,50.83,51.33-3.36-29.19-6.79-59-10.32-89.68Zm147.18,228.66c18.03-18.62,35.82-37,53.06-54.81-25.78,11.21-53.48,13.99-81.98,7.48-1.97,4.97,2.24,11.28-3.82,14.14,10.8,10.95,21.36,21.65,32.73,33.18Zm-66.67-359.99c4.22,12.95,8.42,25.85,12.65,38.84,27.08-12.04,54.84-15.25,84.45-8.51-19.31-13.59-78.81-32.03-97.1-30.33Zm-130.05,355.78c5.34-5.34,10.23-10.03,14.82-14.99,1.03-1.11,1.73-3.31,1.42-4.76-1.41-6.5-3.24-12.92-5.09-20.02-22.2,1.43-43.97-3.02-65.24-11.59,17.91,17,35.81,34,54.09,51.35Zm121.99,37.81c0-12.2-6.2-18.57-18.13-18.63-12.69-.06-19.28,6.89-19.23,20.26.04,10.25,8.35,18.21,18.95,18.12,10.87-.08,18.41-8.18,18.41-19.76Zm-105.46,138.59c.5-.36,1.01-.72,1.51-1.08-1.36-6.35,2.6-7.87,7.19-9.39,7.81-2.58,15.62-5.28,23.15-8.57,8.22-3.59,8.58-5.31,4.77-13.82-29.33,13.2-59.65,14.54-90.72,6.55-.18.7-.36,1.41-.53,2.11,18.21,8.06,36.42,16.13,54.63,24.19Zm140.88-336.06c9.19-9.01,18.9-18.53,26.47-25.95-7.79-8.93-15.84-18.17-24.08-27.62-.84,18.82-1.64,36.8-2.39,53.57Zm-87.4,103.42c-8.9,8.68-17.63,17.19-26.11,25.45,9.58,2.99,23.84-.27,27.79-6.73,4.57-7.47,3.88-12.67-1.69-18.72Zm27.62,17.99c-.05.36-.1.72-.15,1.08,11,3.99,22,7.99,33.09,12.01v-11.01c-11.27-.71-22.11-1.4-32.95-2.09Zm-25.78,32.73v29.34c7.96-10.32,8.08-23.84,0-29.34Zm-36.68-29.99c3.77-3.78,7.05-7.06,11.27-11.29-6.28,1.74-11.34,3.14-17.28,4.79,2.2,2.38,3.91,4.23,6.02,6.5Z"/>
        <path class="cls-1" fill="#FFFFFF"
              d="m185.59,36.77h17.32c1.59,0,3,.08,4.24.23,1.24.15,2.27.47,3.1.96.83.49,1.46,1.2,1.89,2.14.43.93.64,2.17.64,3.71,0,.98-.13,1.82-.4,2.51-.26.69-.64,1.27-1.12,1.74-.48.47-1.05.84-1.72,1.12-.67.28-1.39.48-2.17.6,2.29.2,4.08.85,5.35,1.93,1.27,1.08,1.91,2.69,1.91,4.8,0,1.61-.18,2.96-.55,4.03-.37,1.07-.97,1.93-1.82,2.57-.84.64-1.95,1.1-3.33,1.36-1.37.26-3.07.4-5.09.4h-18.27v-3.97c2.24,0,3.37-.58,3.37-1.74v-16.3c0-1.16-1.12-1.74-3.37-1.74v-4.35Zm12.94,11.46h1.66c.63,0,1.13-.08,1.51-.25.38-.16.67-.4.87-.72.2-.31.33-.71.4-1.19.06-.48.1-1.03.1-1.66,0-.73-.21-1.3-.64-1.72-.43-.42-1.17-.62-2.23-.62h-1.66v6.16Zm0,11.73h2.65c.73,0,1.33-.1,1.8-.3.47-.2.83-.48,1.1-.83.26-.35.45-.76.55-1.23.1-.47.15-.96.15-1.49,0-.61-.05-1.15-.15-1.65-.1-.49-.28-.91-.55-1.27-.26-.35-.63-.62-1.1-.81-.47-.19-1.07-.28-1.8-.28h-2.65v7.87Z"/>
        <path class="cls-1" fill="#FFFFFF"
              d="m221.75,59.16v-16.68c0-1.16-1.12-1.74-3.37-1.74v-3.97h17.13v3.97c-2.8,0-4.2.58-4.2,1.74v17.66h5.52c1.31,0,2.33-.5,3.06-1.49.73-1,1.2-2.6,1.4-4.82l4.24.26-.91,10.78h-26.25v-3.97c2.24,0,3.37-.58,3.37-1.74Z"/>
        <path class="cls-1" fill="#FFFFFF"
              d="m248.34,60.9c1.13,0,1.93-.09,2.38-.28.45-.19.76-.46.91-.81l7.49-23.03h9.76l6.96,23c.3.76,1.31,1.13,3.03,1.13v3.97h-16.49v-3.97h2.5c.73,0,1.1-.21,1.1-.64,0-.08-.01-.15-.04-.23-.03-.08-.05-.16-.08-.26l-.57-2h-8.85l-.53,1.7c-.08.2-.11.38-.11.53,0,.6.57.91,1.7.91h2v3.97h-11.12l-.04-3.97Zm9.27-7h6.62l-3.1-11.35-3.52,11.35Z"/>
        <path class="cls-1" fill="#FFFFFF"
              d="m301.4,46.34c-.5-3.63-2.33-5.45-5.48-5.45-1.19,0-2.19.19-3.01.57-.82.38-1.48.96-1.99,1.76-.5.79-.86,1.81-1.08,3.04-.21,1.24-.32,2.72-.32,4.46s.14,3.08.43,4.25c.29,1.17.67,2.13,1.15,2.87.48.74,1.03,1.28,1.66,1.61.63.33,1.29.49,1.97.49,1.06,0,1.99-.08,2.78-.23s1.49-.42,2.08-.79c.59-.38,1.09-.88,1.49-1.49.4-.62.76-1.39,1.06-2.33l4.31.87c-.3,1.29-.75,2.51-1.34,3.67-.59,1.16-1.38,2.17-2.36,3.03-.98.86-2.2,1.54-3.65,2.04-1.45.5-3.18.76-5.2.76s-3.78-.29-5.5-.87c-1.73-.58-3.23-1.46-4.52-2.65-1.29-1.19-2.31-2.68-3.06-4.48-.76-1.8-1.13-3.93-1.13-6.37s.37-4.72,1.1-6.6c.73-1.88,1.71-3.44,2.93-4.67,1.22-1.24,2.62-2.16,4.2-2.76,1.58-.6,3.21-.91,4.9-.91,3.61,0,6.3.68,8.09,2.04l.76-1.44h4.61v9.19l-4.88.38Z"/>
        <path class="cls-1" fill="#FFFFFF"
              d="m325.61,51.33l-3.4,2.72v5.11c0,1.16,1.12,1.74,3.37,1.74v3.97h-16.3v-3.97c2.24,0,3.37-.58,3.37-1.74v-16.68c0-1.16-1.12-1.74-3.37-1.74v-3.97h16.3v3.97c-2.24,0-3.37.58-3.37,1.74v6.09l6.73-5.33c.2-.15.34-.34.42-.57s.11-.44.11-.64c0-.35-.11-.66-.34-.91-.23-.25-.57-.38-1.02-.38h-.42v-3.97h14.45v3.97c-.86,0-1.78.16-2.78.49-1,.33-1.89.78-2.67,1.36l-4.39,3.33,8.21,13.05c.45.73.9,1.24,1.34,1.51.44.28,1.06.42,1.87.42h.61v3.97h-16.42v-3.97h.68c.98,0,1.48-.33,1.48-.98,0-.23-.1-.54-.3-.95l-4.16-7.64Z"/>
        <path class="cls-1" fill="#FFFFFF"
              d="m376.29,51.33l-3.4,2.72v5.11c0,1.16,1.12,1.74,3.37,1.74v3.97h-16.3v-3.97c2.24,0,3.37-.58,3.37-1.74v-16.68c0-1.16-1.12-1.74-3.37-1.74v-3.97h16.3v3.97c-2.24,0-3.37.58-3.37,1.74v6.09l6.73-5.33c.2-.15.34-.34.42-.57.08-.23.11-.44.11-.64,0-.35-.11-.66-.34-.91-.23-.25-.57-.38-1.02-.38h-.42v-3.97h14.45v3.97c-.86,0-1.78.16-2.78.49-1,.33-1.89.78-2.67,1.36l-4.39,3.33,8.21,13.05c.45.73.9,1.24,1.34,1.51.44.28,1.06.42,1.87.42h.61v3.97h-16.42v-3.97h.68c.98,0,1.48-.33,1.48-.98,0-.23-.1-.54-.3-.95l-4.16-7.64Z"/>
        <path class="cls-1" fill="#FFFFFF"
              d="m430,40.74c-2.24,0-3.37.58-3.37,1.74v22.39h-11.31l-9.46-19.67v13.96c0,1.16,1.12,1.74,3.37,1.74v3.97h-11.65v-3.97c2.24,0,3.37-.58,3.37-1.74v-16.68c0-1.16-1.12-1.74-3.37-1.74v-3.97h14.41l9.72,20.2v-14.49c0-1.16-1.12-1.74-3.37-1.74v-3.97h11.65v3.97Z"/>
        <path class="cls-1" fill="#FFFFFF"
              d="m449.1,40.74c-2.24,0-3.37.58-3.37,1.74v16.68c0,1.16,1.12,1.74,3.37,1.74v3.97h-16.34v-3.97c2.27,0,3.4-.58,3.4-1.74v-16.68c0-1.16-1.13-1.74-3.4-1.74v-3.97h16.34v3.97Z"/>
        <path class="cls-1" fill="#FFFFFF"
              d="m452.31,50.61c0-2.6.37-4.81,1.12-6.64.74-1.83,1.73-3.32,2.95-4.48,1.22-1.16,2.62-2.01,4.2-2.53,1.58-.53,3.2-.79,4.86-.79,3.61,0,6.3.68,8.09,2.04l.76-1.44h4.61v9.19l-4.88.38c-.5-3.63-2.33-5.45-5.48-5.45-1.19,0-2.19.18-3.01.55-.82.37-1.48.95-1.99,1.74-.5.79-.86,1.8-1.08,3.03-.21,1.22-.32,2.69-.32,4.41,0,2.19.13,3.92.4,5.18.26,1.26.66,2.21,1.17,2.86.52.64,1.14,1.05,1.87,1.21.73.16,1.55.25,2.46.25.66,0,1.29-.05,1.91-.15.62-.1,1.17-.27,1.65-.51.48-.24.86-.55,1.15-.93.29-.38.43-.83.43-1.36v-1.66c0-1.16-1.13-1.74-3.4-1.74v-3.97h13.31v3.97c-2.27,0-3.4.58-3.4,1.74v9.38h-5.56l-.76-1.93c-.2.3-.52.6-.95.89-.43.29-.98.56-1.65.81-.67.25-1.48.45-2.42.61-.95.15-2.02.23-3.23.23-1.51,0-3.03-.23-4.56-.7-1.53-.47-2.9-1.27-4.12-2.42-1.22-1.15-2.22-2.67-2.99-4.58-.77-1.9-1.15-4.29-1.15-7.17Z"/>
        <path class="cls-1" fill="#FFFFFF"
              d="m518.5,40.74c-2.27,0-3.4.58-3.4,1.74v16.68c0,1.16,1.13,1.74,3.4,1.74v3.97h-15.28v-3.97c1.54,0,2.31-.58,2.31-1.74v-6.77h-7.03v6.77c0,1.16.77,1.74,2.31,1.74v3.97h-15.24v-3.97c2.24,0,3.37-.58,3.37-1.74v-16.68c0-1.16-1.12-1.74-3.37-1.74v-3.97h15.24v3.97c-1.54,0-2.31.58-2.31,1.74v5.37h7.03v-5.37c0-1.16-.77-1.74-2.31-1.74v-3.97h15.28v3.97Z"/>
        <path class="cls-1" fill="#FFFFFF"
              d="m521.26,36.77h29.35v11.57l-4.16.11c-.15-4.64-1.46-6.96-3.93-6.96h-1.78v17.66c0,1.16,1.13,1.74,3.4,1.74v3.97h-16.34v-3.97c2.24,0,3.37-.58,3.37-1.74v-17.66h-1.82c-2.47,0-3.78,2.32-3.93,6.96l-4.16-.11v-11.57Z"/>
        <path class="cls-1" fill="#FFFFFF"
              d="m566.42,36.77h15.55c2.5,0,4.63.16,6.39.47,1.76.32,3.2.95,4.31,1.89,1.11.95,1.92,2.29,2.44,4.03.52,1.74.78,4.05.78,6.92s-.26,5.46-.78,7.38c-.52,1.92-1.33,3.42-2.44,4.52-1.11,1.1-2.55,1.85-4.31,2.27-1.77.42-3.9.62-6.39.62h-15.55v-3.97c2.24,0,3.37-.58,3.37-1.74v-16.68c0-1.16-1.12-1.74-3.37-1.74v-3.97Zm12.94,23.37h3.21c.83,0,1.49-.16,1.97-.49.48-.33.83-.88,1.06-1.66.23-.78.37-1.81.43-3.08.06-1.27.1-2.84.1-4.71s-.03-3.37-.1-4.52c-.06-1.15-.21-2.03-.43-2.65-.23-.62-.58-1.03-1.06-1.23-.48-.2-1.13-.3-1.97-.3h-3.21v18.65Z"/>
        <path class="cls-1" fill="#FFFFFF"
              d="m627.55,50.8c0,2.29-.29,4.35-.87,6.16-.58,1.82-1.47,3.35-2.67,4.61-1.2,1.26-2.72,2.23-4.56,2.89-1.84.67-4.02,1-6.54,1-2.09,0-4-.23-5.71-.7-1.71-.47-3.19-1.25-4.43-2.35-1.24-1.1-2.19-2.55-2.87-4.35-.68-1.8-1.02-4.03-1.02-6.68,0-2.42.26-4.58.79-6.47.53-1.89,1.38-3.49,2.55-4.78,1.17-1.3,2.69-2.29,4.54-2.97,1.85-.68,4.09-1.02,6.71-1.02,2.07,0,3.96.24,5.69.72,1.73.48,3.21,1.29,4.46,2.42,1.25,1.13,2.21,2.64,2.89,4.5.68,1.87,1.02,4.2,1.02,7Zm-14.64,9.72c.86,0,1.62-.13,2.29-.38.67-.25,1.23-.72,1.68-1.4.45-.68.79-1.64,1.02-2.87.23-1.24.34-2.84.34-4.8s-.11-3.71-.34-5.01c-.23-1.3-.54-2.32-.93-3.06-.39-.74-.87-1.25-1.44-1.53-.57-.28-1.19-.42-1.87-.42-.86,0-1.62.13-2.29.4-.67.26-1.24.73-1.7,1.38-.47.66-.82,1.54-1.06,2.65-.24,1.11-.36,2.51-.36,4.2,0,2.32.11,4.19.34,5.62.23,1.42.55,2.52.96,3.29.42.77.91,1.29,1.48,1.55.57.26,1.19.4,1.87.4Z"/>
        <path class="cls-1" fill="#FFFFFF"
              d="m642.52,42.48c0-1.16-1.12-1.74-3.37-1.74v-3.97h16.34v3.97c-2.27,0-3.4.58-3.4,1.74v13.12c0,1.64-.3,3.08-.89,4.31-.59,1.24-1.42,2.26-2.48,3.08-1.06.82-2.3,1.44-3.73,1.85-1.42.42-2.97.62-4.63.62-1.34,0-2.61-.16-3.82-.49-1.21-.33-2.28-.84-3.2-1.53-.92-.69-1.66-1.57-2.21-2.63-.56-1.06-.83-2.32-.83-3.78s.44-2.71,1.3-3.59c.87-.88,1.99-1.32,3.35-1.32,1.21,0,2.14.3,2.8.89.66.59.98,1.43.98,2.52,0,.91-.3,1.69-.89,2.34-.59.66-1.38,1.02-2.36,1.1.18.68.56,1.19,1.15,1.53.59.34,1.27.51,2.02.51.68,0,1.27-.11,1.76-.32.49-.21.89-.6,1.19-1.17.3-.57.53-1.33.68-2.29.15-.96.23-2.18.23-3.67v-11.08Z"/>
        <path class="cls-1" fill="#FFFFFF"
              d="m686.62,50.8c0,2.29-.29,4.35-.87,6.16-.58,1.82-1.47,3.35-2.67,4.61-1.2,1.26-2.72,2.23-4.56,2.89-1.84.67-4.02,1-6.54,1-2.09,0-4-.23-5.71-.7-1.71-.47-3.19-1.25-4.43-2.35-1.24-1.1-2.19-2.55-2.87-4.35-.68-1.8-1.02-4.03-1.02-6.68,0-2.42.26-4.58.79-6.47.53-1.89,1.38-3.49,2.55-4.78,1.17-1.3,2.69-2.29,4.54-2.97,1.85-.68,4.09-1.02,6.71-1.02,2.07,0,3.96.24,5.69.72,1.73.48,3.21,1.29,4.46,2.42,1.25,1.13,2.21,2.64,2.89,4.5.68,1.87,1.02,4.2,1.02,7Zm-14.64,9.72c.86,0,1.62-.13,2.29-.38.67-.25,1.23-.72,1.68-1.4.45-.68.79-1.64,1.02-2.87.23-1.24.34-2.84.34-4.8s-.11-3.71-.34-5.01c-.23-1.3-.54-2.32-.93-3.06-.39-.74-.87-1.25-1.44-1.53-.57-.28-1.19-.42-1.87-.42-.86,0-1.62.13-2.29.4-.67.26-1.24.73-1.7,1.38-.47.66-.82,1.54-1.06,2.65-.24,1.11-.36,2.51-.36,4.2,0,2.32.11,4.19.34,5.62.23,1.42.55,2.52.96,3.29.42.77.91,1.29,1.48,1.55.57.26,1.19.4,1.87.4Z"/>
        <path class="cls-1" fill="#FFFFFF"
              d="m176.6,999.12c1.34,0,2.27-.11,2.81-.33.53-.22.89-.54,1.07-.96l8.83-27.14h11.5l8.2,27.1c.36.89,1.54,1.34,3.57,1.34v4.68h-19.43v-4.68h2.94c.86,0,1.29-.25,1.29-.76,0-.09-.02-.18-.04-.27-.03-.09-.06-.19-.09-.31l-.67-2.36h-10.43l-.62,2.01c-.09.24-.13.45-.13.62,0,.71.67,1.07,2.01,1.07h2.36v4.68h-13.1l-.04-4.68Zm10.92-8.25h7.8l-3.65-13.37-4.14,13.37Z"/>
        <path class="cls-1" fill="#FFFFFF"
              d="m232.31,1003.8l-6.82-25.94v19.21c0,1.37,1.32,2.05,3.97,2.05v4.68h-13.59v-4.68c2.64,0,3.97-.68,3.97-2.05v-19.66c0-1.37-1.32-2.05-3.97-2.05v-4.68h19.12l4.68,20.19,4.68-20.19h18.23v4.68c-2.67,0-4.01.68-4.01,2.05v19.66c0,1.37,1.34,2.05,4.01,2.05v4.68h-18.67v-4.68c2.64,0,3.97-.68,3.97-2.05v-19.21l-6.82,25.94h-8.74Z"/>
        <path class="cls-1" fill="#FFFFFF"
              d="m297.96,980.72l-5.79.22c0-3.12-1.41-4.68-4.23-4.68h-6.77v7.93h1.69c1.01,0,1.65-1.54,1.92-4.63h4.99l-.67,13.91h-4.9c-.33-3.21-.88-4.81-1.65-4.81h-1.38v9.58h5.17c4.4,0,6.67-2.48,6.82-7.44l5.88.31-1.07,12.7h-32.05v-4.68c2.64,0,3.97-.68,3.97-2.05v-19.66c0-1.37-1.32-2.05-3.97-2.05v-4.68h32.05v10.03Z"/>
        <path class="cls-1" fill="#FFFFFF"
              d="m334.33,1004.12c-1.66,0-3.08-.22-4.26-.65-1.17-.43-2.14-1.01-2.9-1.74-.76-.73-1.31-1.58-1.65-2.56-.34-.98-.51-2.02-.51-3.12v-2.45c0-1.04-.05-1.89-.16-2.54-.1-.65-.28-1.16-.53-1.51-.25-.36-.61-.59-1.07-.71-.46-.12-1.05-.18-1.76-.18h-3.52v8.42c0,1.37,1.65,2.05,4.95,2.05v4.68h-20.19v-4.64c2.64,0,3.97-.68,3.97-2.05v-19.69c0-1.37-1.32-2.05-3.97-2.05v-4.68h23.22c1.46,0,2.88.1,4.28.29,1.4.19,2.64.59,3.72,1.18,1.08.6,1.95,1.43,2.61,2.52.65,1.09.98,2.52.98,4.3,0,1.16-.18,2.18-.53,3.05-.36.88-.82,1.63-1.4,2.25-.58.62-1.24,1.13-1.98,1.51-.74.39-1.52.67-2.32.85,1.6.42,2.84,1.19,3.7,2.33.86,1.13,1.29,2.85,1.29,5.14v3.09c0,.66.13,1.14.4,1.45.27.31.61.47,1.03.47.45,0,.8-.16,1.07-.47.27-.32.4-.8.4-1.46v-2.16h3.25v2.05c0,.98-.16,1.9-.47,2.76-.31.86-.8,1.6-1.47,2.23-.67.62-1.51,1.12-2.52,1.49-1.01.37-2.23.56-3.65.56Zm-16.36-19.92h4.06c.8,0,1.46-.07,1.98-.22.52-.15.94-.39,1.25-.74.31-.34.53-.8.65-1.38.12-.58.18-1.3.18-2.16,0-1.01-.28-1.8-.85-2.36-.56-.56-1.63-.85-3.21-.85h-4.06v7.71Z"/>
        <path class="cls-1" fill="#FFFFFF"
              d="m364.95,975.37c-2.64,0-3.97.68-3.97,2.05v19.66c0,1.37,1.32,2.05,3.97,2.05v4.68h-19.25v-4.68c2.67,0,4.01-.68,4.01-2.05v-19.66c0-1.37-1.34-2.05-4.01-2.05v-4.68h19.25v4.68Z"/>
        <path class="cls-1" fill="#FFFFFF"
              d="m394.32,981.96c-.59-4.28-2.75-6.42-6.46-6.42-1.4,0-2.58.22-3.54.67-.97.45-1.75,1.14-2.34,2.07-.6.94-1.02,2.13-1.27,3.59-.25,1.46-.38,3.21-.38,5.26s.17,3.63.51,5.01c.34,1.38.79,2.51,1.36,3.39.56.88,1.22,1.51,1.96,1.89.74.39,1.51.58,2.32.58,1.25,0,2.34-.09,3.28-.27.94-.18,1.75-.49,2.45-.94.7-.45,1.29-1.03,1.76-1.76.48-.73.89-1.64,1.25-2.74l5.08,1.03c-.36,1.51-.88,2.96-1.58,4.32-.7,1.37-1.63,2.56-2.79,3.57-1.16,1.01-2.59,1.81-4.3,2.41-1.71.59-3.75.89-6.13.89s-4.45-.34-6.49-1.03c-2.04-.68-3.81-1.72-5.33-3.12-1.52-1.4-2.72-3.16-3.61-5.28-.89-2.12-1.34-4.63-1.34-7.51s.43-5.56,1.29-7.78c.86-2.21,2.01-4.05,3.45-5.5,1.44-1.46,3.09-2.54,4.95-3.25,1.86-.71,3.78-1.07,5.77-1.07,4.25,0,7.43.8,9.54,2.41l.89-1.69h5.44v10.83l-5.75.45Z"/>
        <path class="cls-1" fill="#FFFFFF"
              d="m400.83,999.12c1.34,0,2.27-.11,2.81-.33.53-.22.89-.54,1.07-.96l8.83-27.14h11.5l8.2,27.1c.36.89,1.54,1.34,3.57,1.34v4.68h-19.43v-4.68h2.94c.86,0,1.29-.25,1.29-.76,0-.09-.02-.18-.04-.27-.03-.09-.06-.19-.09-.31l-.67-2.36h-10.43l-.62,2.01c-.09.24-.13.45-.13.62,0,.71.67,1.07,2.01,1.07h2.36v4.68h-13.1l-.04-4.68Zm10.92-8.25h7.8l-3.65-13.37-4.14,13.37Z"/>
        <path class="cls-1" fill="#FFFFFF"
              d="m478.29,975.37c-2.64,0-3.97.68-3.97,2.05v26.39h-13.33l-11.14-23.18v16.45c0,1.37,1.32,2.05,3.97,2.05v4.68h-13.73v-4.68c2.64,0,3.97-.68,3.97-2.05v-19.66c0-1.37-1.32-2.05-3.97-2.05v-4.68h16.98l11.45,23.8v-17.07c0-1.37-1.32-2.05-3.97-2.05v-4.68h13.73v4.68Z"/>
        <path class="cls-1" fill="#FFFFFF"
              d="m515.73,987.85l-4.01,3.21v6.02c0,1.37,1.32,2.05,3.97,2.05v4.68h-19.21v-4.68c2.64,0,3.97-.68,3.97-2.05v-19.66c0-1.37-1.32-2.05-3.97-2.05v-4.68h19.21v4.68c-2.64,0-3.97.68-3.97,2.05v7.18l7.93-6.28c.24-.18.4-.4.49-.67.09-.27.13-.52.13-.76,0-.42-.13-.77-.4-1.07-.27-.3-.67-.45-1.2-.45h-.49v-4.68h17.03v4.68c-1.01,0-2.1.19-3.28.58-1.17.39-2.22.92-3.14,1.6l-5.17,3.92,9.67,15.38c.53.86,1.06,1.46,1.58,1.78.52.33,1.25.49,2.21.49h.71v4.68h-19.34v-4.68h.8c1.16,0,1.74-.39,1.74-1.16,0-.27-.12-.64-.36-1.11l-4.9-9Z"/>
        <path class="cls-1" fill="#FFFFFF"
              d="m572.87,980.72l-5.79.22c0-3.12-1.41-4.68-4.23-4.68h-6.77v7.93h1.69c1.01,0,1.65-1.54,1.92-4.63h4.99l-.67,13.91h-4.9c-.33-3.21-.88-4.81-1.65-4.81h-1.38v9.58h5.17c4.4,0,6.67-2.48,6.82-7.44l5.88.31-1.07,12.7h-32.05v-4.68c2.64,0,3.97-.68,3.97-2.05v-19.66c0-1.37-1.32-2.05-3.97-2.05v-4.68h32.05v10.03Z"/>
        <path class="cls-1" fill="#FFFFFF"
              d="m615.83,975.37c-2.64,0-3.97.68-3.97,2.05v26.39h-13.33l-11.14-23.18v16.45c0,1.37,1.32,2.05,3.97,2.05v4.68h-13.73v-4.68c2.64,0,3.97-.68,3.97-2.05v-19.66c0-1.37-1.32-2.05-3.97-2.05v-4.68h16.98l11.45,23.8v-17.07c0-1.37-1.32-2.05-3.97-2.05v-4.68h13.73v4.68Z"/>
        <path class="cls-1" fill="#FFFFFF"
              d="m633.88,991.59v5.48c0,1.37,1.65,2.05,4.95,2.05v4.68h-20.19v-4.68c2.64,0,3.97-.68,3.97-2.05v-19.66c0-1.37-1.32-2.05-3.97-2.05v-4.68h20.32c1.96,0,3.68.13,5.17.4,1.49.27,2.73.76,3.72,1.47,1,.71,1.74,1.69,2.23,2.94.49,1.25.74,2.87.74,4.86,0,3.98-.99,6.85-2.96,8.6-1.98,1.75-4.94,2.63-8.89,2.63h-5.08Zm0-5.79h1.65c.98,0,1.78-.09,2.41-.27.62-.18,1.13-.47,1.52-.89.39-.42.65-.97.8-1.67.15-.7.22-1.57.22-2.61,0-1.22-.34-2.17-1.02-2.85-.68-.68-1.99-1.03-3.92-1.03h-1.65v9.32Z"/>
        <path class="cls-1" fill="#FFFFFF"
              d="m687.86,987.22c0,2.7-.34,5.13-1.03,7.26-.68,2.14-1.73,3.95-3.14,5.44-1.41,1.49-3.2,2.62-5.37,3.41-2.17.79-4.74,1.18-7.71,1.18-2.47,0-4.71-.28-6.73-.82-2.02-.55-3.76-1.47-5.21-2.76-1.46-1.29-2.59-3-3.39-5.13-.8-2.12-1.2-4.75-1.2-7.87,0-2.85.31-5.39.94-7.62.62-2.23,1.63-4.11,3.01-5.64,1.38-1.53,3.16-2.7,5.35-3.5,2.18-.8,4.82-1.2,7.91-1.2,2.44,0,4.67.28,6.71.85,2.03.57,3.79,1.52,5.26,2.85,1.47,1.34,2.61,3.11,3.41,5.3.8,2.2,1.2,4.95,1.2,8.25Zm-17.25,11.45c1.01,0,1.91-.15,2.7-.45.79-.3,1.45-.85,1.98-1.65.53-.8.94-1.93,1.2-3.39.27-1.46.4-3.34.4-5.66s-.13-4.38-.4-5.91c-.27-1.53-.63-2.73-1.09-3.61-.46-.88-1.02-1.48-1.69-1.81-.67-.33-1.4-.49-2.21-.49-1.01,0-1.91.16-2.7.47-.79.31-1.46.85-2.01,1.63-.55.77-.97,1.81-1.25,3.12-.28,1.31-.42,2.96-.42,4.95,0,2.73.13,4.94.4,6.62.27,1.68.65,2.97,1.14,3.88.49.91,1.07,1.52,1.74,1.83.67.31,1.4.47,2.21.47Z"/>
    </g>
</svg>